<svg width="88" height="46" viewBox="0 0 88 46" fill="none" xmlns="http://www.w3.org/2000/svg">
<path d="M68.6829 45.0001C68.6829 45.5523 69.1306 46.0001 69.6829 46.0001H73.2032H75.6287H77.8655H82.2872H86.5707C87.123 46.0001 87.5707 45.5523 87.5707 45.0001V25.2778C87.5707 24.7255 87.123 24.2778 86.5707 24.2778H86.2895C85.9994 24.2778 85.7235 24.4038 85.5336 24.6232L78.9666 32.206C78.5713 32.6624 77.8649 32.6671 77.4636 32.2161L70.6982 24.6131C70.5085 24.3998 70.2366 24.2778 69.9512 24.2778H69.6829C69.1306 24.2778 68.6829 24.7255 68.6829 25.2778V45.0001Z" fill="#F0F4EF"/>
<path d="M3 24.2104C1.34315 24.2104 0 25.5536 0 27.2104V42.9999C0 44.6568 1.34315 45.9999 3 45.9999H5.33625H7.16701H11.1718H11.96C14.2779 45.9999 15.7202 43.4834 14.5485 41.4834L14.0783 40.6808C13.0927 38.9985 14.0736 36.8628 15.3895 35.4241C16.4932 34.2175 17.0073 32.6704 17.0073 31.0701C17.0073 27.2833 14.3236 24.2104 8.95616 24.2104H3Z" fill="#F0F4EF"/>
<path d="M81.762 21.7895H82.1406C84.6643 21.7895 86.0602 18.8632 84.4723 16.9018L80.9643 12.5687C80.0719 11.4664 80.0734 9.88972 80.9678 8.78905L84.1348 4.89199C85.728 2.93149 84.3328 0 81.8066 0H81.6982H76.7535H74.2334H71.7783C70.1215 0 68.7783 1.34315 68.7783 3V18.7895C68.7783 20.4463 70.1215 21.7895 71.7783 21.7895H74.2334H76.7535H81.762Z" fill="#F0F4EF"/>
<path d="M17.1946 15.861C17.1946 14.7306 16.8573 13.6516 16.2523 12.7617C15.6687 11.9033 15.5867 9.1553 16.083 8.24356C16.4775 7.51871 16.7033 6.65106 16.7033 5.64912C16.7033 2.20378 14.0934 0 9.70266 0H0.999999C0.447714 0 0 0.447715 0 1V20.7895C0 21.3418 0.447715 21.7895 1 21.7895H10.0404C14.5847 21.7895 17.1946 19.4615 17.1946 15.861Z" fill="#F0F4EF"/>
<path d="M41.7583 10.8796C41.7583 4.48518 36.8763 0 30.7354 0C24.6251 0 19.651 4.48518 19.651 10.8796C19.651 17.274 24.6251 21.7895 30.7354 21.7895C36.8456 21.7895 41.7583 17.274 41.7583 10.8796Z" fill="#BFCC94"/>
<path d="M41.7583 35.09C41.7583 28.6956 36.8763 24.2104 30.7354 24.2104C24.6251 24.2104 19.651 28.6956 19.651 35.09C19.651 41.4844 24.6251 45.9999 30.7354 45.9999C36.8456 45.9999 41.7583 41.4844 41.7583 35.09Z" fill="#344966"/>
<path d="M66.3219 10.8796C66.3219 4.48518 61.4399 0 55.299 0C49.1887 0 44.2146 4.48518 44.2146 10.8796C44.2146 17.274 49.1887 21.7895 55.299 21.7895C61.4092 21.7895 66.3219 17.274 66.3219 10.8796Z" fill="#344966"/>
<path d="M66.3219 35.09C66.3219 28.6956 61.4399 24.2104 55.299 24.2104C49.1887 24.2104 44.2146 28.6956 44.2146 35.09C44.2146 41.4844 49.1887 45.9999 55.299 45.9999C61.4092 45.9999 66.3219 41.4844 66.3219 35.09Z" fill="#BFCC94"/>
</svg>
