<svg width="56" height="54" viewBox="0 0 56 54" fill="none" xmlns="http://www.w3.org/2000/svg">
<circle cx="24" cy="30" r="24" fill="#344966"/>
<path d="M11.0833 19.1667H13.8122C14.7496 19.1667 15.5613 19.8178 15.7646 20.7329L16.4999 24.0417M16.4999 24.0417L17.7708 31.0317C18.2895 33.8847 20.7743 35.9584 23.674 35.9584H27.4189C30.2203 35.9584 32.6488 34.0199 33.2697 31.2881L34.5001 25.8742C34.7134 24.9355 34 24.0417 33.0374 24.0417H16.4999Z" stroke="#F0F4EF" stroke-width="2" stroke-linecap="round"/>
<ellipse cx="19.2083" cy="39.7501" rx="1.08333" ry="1.08333" stroke="#F0F4EF" stroke-width="2"/>
<ellipse cx="32.2083" cy="39.7501" rx="1.08333" ry="1.08333" stroke="#F0F4EF" stroke-width="2"/>
<circle cx="44.5" cy="11.5" r="11.5" fill="#BFCC94"/>
<path d="M42.324 9.148V7.24H45.648V16H43.512V9.148H42.324Z" fill="#344966"/>
</svg>
